PathFileType	4	(X/Y/Z)	..\data\2015032\dynamic\2015032_C5_01.trc
DataRate	CameraRate	NumFrames	NumMarkers	Units	OrigDataRate	OrigDataStartFrame	OrigNumFrames
100.000000	100.000000	4	48	mm	100.000000	82	165
Frame#	Time	L_IAS			L_IPS			R_IPS			R_IAS			L_FTC			L_FLE			L_FAX			L_TTC			L_FAL			L_FCC			L_FM1			L_FM2			L_FM5			R_FTC			R_FLE			R_FAX			R_TTC			R_FAL			R_FCC			R_FM1			R_FM2			R_FM5			CV7			TV10			SXS			SJN			L_SIA			L_SRS			L_SAA			L_SAE			L_HLE			L_HME			L_UOA			L_RSP			L_UHE			L_HM2			L_HM5			R_SIA			R_SRS			R_SAA			R_SAE			R_HLE			R_HME			R_UOA			R_RSP			R_UHE			R_HM2			R_HM5			
		X1	Y1	Z1	X2	Y2	Z2	X3	Y3	Z3	X4	Y4	Z4	X5	Y5	Z5	X6	Y6	Z6	X7	Y7	Z7	X8	Y8	Z8	X9	Y9	Z9	X10	Y10	Z10	X11	Y11	Z11	X12	Y12	Z12	X13	Y13	Z13	X14	Y14	Z14	X15	Y15	Z15	X16	Y16	Z16	X17	Y17	Z17	X18	Y18	Z18	X19	Y19	Z19	X20	Y20	Z20	X21	Y21	Z21	X22	Y22	Z22	X23	Y23	Z23	X24	Y24	Z24	X25	Y25	Z25	X26	Y26	Z26	X27	Y27	Z27	X28	Y28	Z28	X29	Y29	Z29	X30	Y30	Z30	X31	Y31	Z31	X32	Y32	Z32	X33	Y33	Z33	X34	Y34	Z34	X35	Y35	Z35	X36	Y36	Z36	X37	Y37	Z37	X38	Y38	Z38	X39	Y39	Z39	X40	Y40	Z40	X41	Y41	Z41	X42	Y42	Z42	X43	Y43	Z43	X44	Y44	Z44	X45	Y45	Z45	X46	Y46	Z46	X47	Y47	Z47	X48	Y48	Z48	

83	0.8200000000000001	865.2454833984377	925.7009887695315	-360.9303283691407	719.8046875000001	934.2021484375002	-280.1666259765626	729.1713256835939	946.6287231445315	-173.0958709716797	894.6915283203127	950.0139160156252	-129.3767700195313	801.070495605469	842.0638427734377	-397.8589477539064	899.9407958984377	450.2532958984376	-371.8283081054688	867.040466308594	408.9279785156251	-376.5251770019532	914.9236450195315	359.9868164062501	-337.0617675781251	608.2437133789064	218.2139892578126	-330.4744873046876	553.3275146484376	212.0756988525391	-276.4608154296876	672.3325195312501	69.7826385498047	-312.0505676269532	670.5114135742189	89.37878417968751	-361.6057739257813	635.9656982421876	124.3732147216797	-391.1324157714845	814.0591430664065	857.6278076171877	-61.09792709350587	874.2077636718752	442.4409179687501	-119.8483963012696	866.4956665039065	387.8501586914064	-124.9552536010742	918.888122558594	384.1417846679689	-184.5723114013672	806.1198730468752	59.64355850219728	-198.8232421875001	771.5238037109377	23.56075477600098	-257.4698486328126	968.509216308594	23.4389934539795	-240.5005340576172	959.2744750976565	31.63069534301759	-182.2155914306641	902.236511230469	18.80098533630371	-139.5385284423828	731.9404907226564	1428.267700195313	-221.8774871826172	675.0328369140626	1201.5029296875	-224.6948699951172	856.4166259765627	1174.67822265625	-240.5014801025391	830.4467773437502	1339.29638671875	-227.9030914306641	650.5714721679689	1238.24755859375	-341.8718261718751	681.7515869140626	1359.747314453125	-327.0865783691407	754.3255615234376	1374.053344726563	-414.7936401367189	800.498229980469	1373.334106445313	-419.6312255859376	813.3709106445315	1064.740356445313	-469.0588684082032	772.1453857421877	1044.095458984375	-402.9339294433595	780.2961425781252	1018.604675292969	-445.558319091797	984.1326293945315	889.8106079101565	-396.371795654297	944.5977783203127	868.0366210937502	-457.1075134277345	1039.537475585938	827.2808227539065	-387.0572509765626	967.2258300781252	794.4250488281252	-450.022674560547	662.6602783203126	1231.362670898438	-108.8703689575196	690.4237670898439	1349.731201171875	-122.1443023681641	759.3599853515626	1355.048950195313	-34.20190429687501	804.1452636718752	1355.146728515625	-23.4284782409668	760.2031250000001	1045.360473632813	-2.694697380065918	735.0973510742189	1041.628662109375	-70.61275482177736	724.7301025390626	1020.990661621094	-28.61931991577149	839.6766357421877	807.9046020507815	-40.64742660522462	789.679382324219	811.0019531250002	15.22769641876221	854.437927246094	718.1511230468751	-33.28498458862305	772.3603515625002	738.5081176757814	20.50939369201661	
84	0.8300000000000001	876.4293212890627	927.5914306640627	-359.8078613281251	730.9537963867189	935.6829223632815	-279.6295471191407	740.3890991210939	947.729675292969	-172.4756011962891	905.9329833984377	950.759948730469	-128.3789978027344	813.6237792968752	844.041931152344	-397.4910888671876	922.999938964844	454.3108215332032	-369.5263061523438	891.3291015625002	412.1427307128907	-374.6921386718751	940.5812988281252	364.6479187011719	-334.9267578125001	639.4384155273439	210.6939544677735	-332.8114624023438	583.4306030273439	201.3144836425782	-279.9148864746094	711.6711425781251	66.16446685791017	-314.1374511718751	709.5638427734376	86.6570510864258	-363.6371154785157	673.9765625000001	119.2070083618164	-393.2133789062501	824.6176757812502	858.2159423828127	-60.51870346069337	876.3886718750002	442.401336669922	-118.8260803222657	868.0730590820315	387.7018432617189	-124.0356140136719	920.4368896484377	383.6303100585938	-183.6581726074219	806.174011230469	59.6159019470215	-198.8831481933594	771.4379882812502	23.80077934265137	-257.4526367187501	968.5044555664065	23.13193893432618	-240.3675842285157	959.3381958007815	31.47489166259766	-181.9720916748047	902.1350708007815	18.57226181030274	-139.3899841308594	743.6909790039064	1429.505737304688	-221.3217315673829	686.6988525390626	1202.677612304688	-223.2095947265626	867.8601684570315	1176.040893554688	-240.2835388183594	842.0784301757815	1340.510009765625	-227.951156616211	661.0177612304689	1239.125366210938	-339.8274230957032	692.4660644531251	1360.6083984375	-325.7174987792969	763.8977050781251	1374.783081054688	-414.1931152343751	810.0744628906252	1373.997436523438	-419.6759643554689	820.168395996094	1065.04833984375	-467.915496826172	779.8294677734377	1045.020385742188	-401.0858459472657	786.4287719726565	1019.69775390625	-443.8225097656251	987.891540527344	885.7893066406252	-397.6932373046876	947.1981201171877	865.4692993164065	-458.192108154297	1041.795288085938	821.7773437500002	-389.4165039062501	968.0938110351565	791.3630981445315	-451.9891662597657	675.4398803710939	1233.09619140625	-106.8111648559571	702.8846435546876	1351.343505859375	-120.9355850219727	772.6118774414065	1357.092407226563	-33.71319580078126	817.778747558594	1357.025634765625	-23.24468994140625	779.0600585937502	1046.727294921875	-0.6987041831016542	751.9299316406251	1042.38671875	-67.7755813598633	743.3342285156251	1021.622253417969	-25.6024570465088	862.7619628906252	811.0841064453127	-41.2949562072754	814.3120117187502	813.081481933594	16.14785766601563	879.7207641601565	721.6593017578126	-34.43855667114259	798.9046630859377	740.2145385742189	22.08652496337891	
85	0.84	887.7214965820315	929.3466796875002	-358.6673889160157	742.1361694335939	937.063903808594	-279.2073669433594	751.6096191406251	948.6428222656252	-171.9559173583985	917.1132812500002	951.276062011719	-127.3213348388672	826.3286743164065	845.9877929687502	-397.2518310546876	945.4475708007815	458.2774658203126	-367.1649475097657	915.0909423828127	415.1206054687501	-372.7975463867188	965.7558593750002	369.3374938964844	-332.6352233886719	671.3527832031251	202.0616607666016	-334.9536132812501	614.5768432617189	189.3898010253907	-283.1512756347657	751.8186035156251	62.1056365966797	-315.6706542968751	749.1760253906251	83.26101684570314	-365.1035156250001	712.4338989257814	113.1236267089844	-394.7828979492189	834.980163574219	858.5718994140627	-60.05031585693361	878.4346923828127	442.3580932617189	-117.7127914428711	869.5651855468752	387.5575256347657	-123.0263671875	921.9189453125002	383.1308898925782	-182.6490173339844	806.269958496094	59.6115188598633	-198.9353637695313	771.400573730469	24.05573272705079	-257.4525756835938	968.520935058594	22.84233093261719	-240.2264709472657	959.4223632812502	31.3496265411377	-181.7428588867188	902.0582275390627	18.36980247497559	-139.2243347167969	755.4093017578126	1430.566528320313	-220.7714233398438	698.3875122070314	1203.669555664063	-221.7156524658204	879.380554199219	1177.24560546875	-240.0262298583985	853.6939697265627	1341.570556640625	-227.9878082275391	671.5596313476564	1239.798095703125	-337.7765197753907	703.2053833007814	1361.286254882813	-324.3492126464844	773.4713134765627	1375.350219726563	-413.5606689453126	819.647399902344	1374.505981445313	-419.690887451172	826.9041137695315	1065.25634765625	-466.8236389160157	787.5150146484377	1045.825073242188	-399.3410949707032	792.5105590820315	1020.719543457031	-442.1748657226564	991.309020996094	881.5605468750002	-399.0884704589845	949.4862060546877	862.7928466796877	-459.3528747558595	1043.570678710938	816.0416259765627	-391.8290405273439	968.5339355468752	788.214050292969	-454.0335388183595	688.2081298828126	1234.62841796875	-104.8200302124024	715.2948608398439	1352.757080078125	-119.7806625366211	785.710388183594	1358.965576171875	-33.28518676757813	831.2496337890627	1358.760009765625	-23.07249450683594	797.8858032226565	1048.045654296875	1.275205969810486	768.7846679687502	1043.090576171875	-64.97423553466798	761.9931640625001	1022.164428710938	-22.64427375793457	885.9731445312502	814.4060058593752	-41.93010711669923	839.0507812500002	815.281188964844	16.94116592407227	905.1580200195315	725.3505859375001	-35.67380142211915	825.616638183594	742.0852050781251	23.43191528320313	
86	0.85	899.1202392578127	930.9232177734377	-357.5284118652344	753.3526611328126	938.298278808594	-278.8811950683594	762.8406372070314	949.3520507812502	-171.5234375	928.2409667968752	951.5296020507815	-126.2224655151367	839.1409301757815	847.8426513671877	-397.126190185547	967.2248535156252	462.054901123047	-364.7926330566407	938.2736816406252	417.7662353515626	-370.8763122558594	990.375915527344	373.9698791503907	-330.2231750488282	704.0301513671876	192.4964599609376	-336.7958984375001	646.8638305664064	176.4866027832032	-286.0231628417969	792.6904296875002	57.78096008300783	-316.7486267089844	789.2547607421877	79.38494873046876	-366.0977783203126	751.2778320312501	106.3898391723633	-395.8936157226564	845.1663818359377	858.6936035156252	-59.69918823242189	880.406433105469	442.3021545410157	-116.5367736816407	871.0212402343752	387.4111328125001	-121.9550170898438	923.3757324218752	382.6323242187501	-181.5795135498047	806.4038696289065	59.63520812988283	-198.9871978759766	771.412780761719	24.31217765808106	-257.4779663085938	968.5559692382815	22.56879615783692	-240.0918121337891	959.5261840820315	31.25429344177247	-181.5359649658203	902.0039672851565	18.19830513000489	-139.0504608154297	767.1212158203126	1431.424072265625	-220.2288665771485	710.1079101562501	1204.461547851563	-220.2221679687501	890.9969482421877	1178.246337890625	-239.7403717041016	865.3140258789065	1342.4443359375	-228.0161590576172	682.2057495117189	1240.242919921875	-335.7225036621094	713.9945678710939	1361.764526367188	-322.9924926757813	783.0833129882815	1375.720092773438	-412.9035644531251	829.253601074219	1374.8203125	-419.6812133789064	833.6099243164065	1065.32373046875	-465.7941894531251	795.1931152343752	1046.477172851563	-397.7340393066407	798.6006469726565	1021.629821777344	-440.640838623047	994.4058837890627	877.1343383789065	-400.5433044433595	951.4932861328127	859.9940185546877	-460.5682373046876	1044.895629882813	810.1044921875002	-394.2630615234376	968.5869750976565	784.9703369140627	-456.1061096191407	700.9687500000001	1235.936157226563	-102.9043273925782	727.6768188476564	1353.951782226563	-118.6775588989258	798.6995849609377	1360.621826171875	-32.89350128173829	844.578308105469	1360.320678710938	-22.92232322692871	816.6436157226565	1049.277465820313	3.221473693847657	785.6607666015627	1043.6982421875	-62.2305145263672	780.6744384765627	1022.581115722656	-19.76583862304688	909.264099121094	817.8330078125002	-42.54728698730469	863.8343505859377	817.5618286132815	17.59589004516602	930.7268676757815	729.2120361328126	-36.96708679199219	852.4358520507815	744.0827636718751	24.52160453796387	
